<?xml version="1.0" encoding="UTF-8"?>
<svg id="Camada_2" data-name="Camada 2" xmlns="http://www.w3.org/2000/svg" viewBox="0 0 40 40">
  <defs>
    <style>
      .cls-1 {
        fill: #f2f5f9;
      }

      .cls-2 {
        fill: #e30613;
      }
    </style>
  </defs>
  <g id="Camada_1-2" data-name="Camada 1">
    <g>
      <path class="cls-1" d="M38.4,19.23c-1.06,1.92-2.7,3.47-4.9,4.64-2.2,1.18-4.94,1.77-8.21,1.77h-6.04v14.36h-9.74V0h15.78c3.19,0,5.89.55,8.09,1.65,2.2,1.1,3.85,2.62,4.96,4.56,1.1,1.94,1.65,4.16,1.65,6.67,0,2.32-.53,4.44-1.6,6.35ZM28.72,16.58c.91-.87,1.37-2.11,1.37-3.7s-.46-2.83-1.37-3.7c-.91-.87-2.3-1.31-4.16-1.31h-5.3v10.03h5.3c1.86,0,3.25-.44,4.16-1.31Z"/>
      <rect class="cls-2" y="30.48" width="9.52" height="9.52"/>
    </g>
  </g>
</svg>