<?xml version="1.0" encoding="UTF-8"?>
<svg id="Camada_2" data-name="Camada 2" xmlns="http://www.w3.org/2000/svg" viewBox="0 0 160 89.91">
  <defs>
    <style>
      .cls-1 {
        fill: #fff;
      }
    </style>
  </defs>
  <g id="Camada_1-2" data-name="Camada 1">
    <g>
      <g>
        <g>
          <path class="cls-1" d="M43.98,28.07c-1.21,2.19-3.07,3.95-5.58,5.29-2.51,1.34-5.63,2.01-9.35,2.01h-6.88v16.36h-11.1V6.17h17.98c3.64,0,6.71.63,9.22,1.88,2.51,1.26,4.39,2.99,5.65,5.19,1.26,2.21,1.88,4.74,1.88,7.59,0,2.64-.61,5.05-1.82,7.24ZM32.95,25.06c1.04-1,1.56-2.4,1.56-4.22s-.52-3.22-1.56-4.22c-1.04-.99-2.62-1.49-4.74-1.49h-6.04v11.42h6.04c2.12,0,3.7-.5,4.74-1.49Z"/>
          <path class="cls-1" d="M62.68,15.51v36.22h-11.1V15.51h11.1Z"/>
          <path class="cls-1" d="M92.15,51.73l-6.94-10.06-5.84,10.06h-12.01l11.94-18.5-12.27-17.72h12.46l6.95,10,5.84-10h12.01l-12.14,18.24,12.46,17.98h-12.46Z"/>
          <path class="cls-1" d="M142.84,36.29h-25.12c.17,2.25.9,3.97,2.17,5.16,1.28,1.19,2.84,1.78,4.71,1.78,2.77,0,4.69-1.17,5.78-3.5h11.81c-.61,2.38-1.7,4.52-3.28,6.43-1.58,1.9-3.56,3.4-5.94,4.48-2.38,1.08-5.04,1.62-7.98,1.62-3.55,0-6.71-.76-9.48-2.27-2.77-1.51-4.93-3.68-6.49-6.49-1.56-2.81-2.34-6.1-2.34-9.87s.77-7.05,2.3-9.87c1.54-2.81,3.69-4.98,6.46-6.49,2.77-1.51,5.95-2.27,9.54-2.27s6.62.74,9.35,2.21c2.73,1.47,4.86,3.57,6.39,6.3,1.54,2.73,2.3,5.91,2.3,9.54,0,1.04-.06,2.12-.19,3.25ZM131.68,30.12c0-1.9-.65-3.42-1.95-4.54-1.3-1.12-2.92-1.69-4.87-1.69s-3.43.54-4.71,1.62c-1.28,1.08-2.07,2.62-2.37,4.61h13.89Z"/>
          <path class="cls-1" d="M159.98,3.7v48.03h-11.1V3.7h11.1Z"/>
        </g>
        <g>
          <path class="cls-1" d="M71.54,62.57v27.02h-4.16v-27.02h4.16Z"/>
          <path class="cls-1" d="M76.89,74.07c.84-1.56,1.98-2.77,3.43-3.63,1.45-.86,3.05-1.3,4.8-1.3,1.58,0,2.96.31,4.14.93,1.18.62,2.12,1.39,2.83,2.32v-2.92h4.2v20.12h-4.2v-2.99c-.71.95-1.67,1.74-2.88,2.37-1.22.63-2.6.95-4.16.95-1.73,0-3.31-.44-4.75-1.33-1.44-.89-2.57-2.13-3.41-3.72-.84-1.59-1.26-3.4-1.26-5.42s.42-3.81,1.26-5.37ZM91.24,75.89c-.57-1.02-1.32-1.8-2.25-2.34-.93-.53-1.92-.8-2.99-.8s-2.07.26-2.99.79c-.93.52-1.67,1.29-2.25,2.3-.57,1.01-.86,2.21-.86,3.6s.29,2.6.86,3.65c.57,1.05,1.33,1.84,2.26,2.39.94.55,1.93.82,2.98.82s2.07-.27,2.99-.8c.92-.54,1.67-1.32,2.25-2.35.57-1.03.86-2.25.86-3.63s-.29-2.59-.86-3.61Z"/>
          <path class="cls-1" d="M108.83,70.07c1.23-.62,2.6-.93,4.11-.93,1.78,0,3.38.43,4.82,1.28,1.44.85,2.57,2.06,3.4,3.63.83,1.57,1.24,3.37,1.24,5.39s-.41,3.83-1.24,5.42c-.83,1.59-1.97,2.84-3.41,3.72-1.45.89-3.05,1.33-4.8,1.33-1.56,0-2.94-.3-4.14-.91-1.2-.61-2.16-1.39-2.87-2.34v2.92h-4.16v-27.02h4.16v9.89c.71-.97,1.67-1.77,2.9-2.39ZM117.3,75.84c-.57-1.01-1.33-1.78-2.26-2.3-.94-.52-1.94-.79-3.01-.79s-2.04.27-2.98.8c-.94.54-1.69,1.31-2.26,2.34-.57,1.02-.86,2.23-.86,3.61s.29,2.6.86,3.63,1.33,1.82,2.26,2.35c.94.54,1.93.8,2.98.8s2.07-.27,3.01-.82c.94-.55,1.69-1.34,2.26-2.39.57-1.05.86-2.26.86-3.65s-.29-2.59-.86-3.6Z"/>
          <path class="cls-1" d="M130.1,88.62c-1.53-.86-2.74-2.08-3.61-3.65-.88-1.57-1.31-3.39-1.31-5.46s.45-3.86,1.35-5.44c.9-1.58,2.13-2.8,3.69-3.65,1.56-.85,3.3-1.28,5.22-1.28s3.66.43,5.22,1.28c1.56.85,2.79,2.07,3.69,3.65.9,1.58,1.35,3.39,1.35,5.44s-.46,3.86-1.39,5.44-2.18,2.81-3.78,3.67c-1.59.86-3.35,1.3-5.28,1.3s-3.61-.43-5.15-1.3ZM138.26,85.53c.94-.51,1.7-1.28,2.28-2.3.58-1.02.88-2.26.88-3.72s-.28-2.7-.84-3.71c-.56-1.01-1.3-1.77-2.23-2.28-.93-.51-1.92-.77-2.99-.77s-2.06.26-2.98.77c-.91.51-1.64,1.27-2.17,2.28-.54,1.01-.8,2.25-.8,3.71,0,2.17.55,3.84,1.66,5.02,1.11,1.18,2.5,1.77,4.18,1.77,1.07,0,2.07-.26,3.01-.77Z"/>
          <path class="cls-1" d="M156.4,70c1.01-.57,2.21-.86,3.6-.86v4.31h-1.06c-1.63,0-2.87.41-3.71,1.24-.84.83-1.26,2.26-1.26,4.31v10.59h-4.16v-20.12h4.16v2.92c.61-1.02,1.42-1.82,2.43-2.39Z"/>
        </g>
      </g>
      <rect class="cls-1" x="51.57" width="11.07" height="11.07"/>
      <rect class="cls-1" y="40.66" width="11.07" height="11.07"/>
      <rect class="cls-1" x="148.89" y="40.66" width="11.07" height="11.07"/>
    </g>
  </g>
</svg>