<?xml version="1.0" encoding="UTF-8"?>
<svg id="Camada_2" data-name="Camada 2" xmlns="http://www.w3.org/2000/svg" viewBox="0 0 160 40">
  <defs>
    <style>
      .cls-1 {
        fill: #fff;
      }

      .cls-2 {
        fill: none;
      }
    </style>
  </defs>
  <g id="Camada_1-2" data-name="Camada 1">
    <g>
      <g>
        <g>
          <path class="cls-1" d="M21.3,20.94c-.59,1.06-1.49,1.91-2.7,2.56-1.22.65-2.72.97-4.53.97h-3.33v7.92h-5.37V10.34h8.71c1.76,0,3.25.3,4.46.91,1.21.61,2.13,1.45,2.73,2.51.61,1.07.91,2.29.91,3.68,0,1.28-.29,2.45-.88,3.5ZM15.95,19.48c.5-.48.75-1.16.75-2.04s-.25-1.56-.75-2.04c-.5-.48-1.27-.72-2.29-.72h-2.92v5.53h2.92c1.03,0,1.79-.24,2.29-.72Z"/>
          <path class="cls-1" d="M30.35,14.86v17.54h-5.37V14.86h5.37Z"/>
          <path class="cls-1" d="M44.62,32.4l-3.36-4.87-2.83,4.87h-5.81l5.78-8.96-5.94-8.58h6.03l3.36,4.84,2.83-4.84h5.81l-5.88,8.83,6.03,8.71h-6.03Z"/>
          <path class="cls-1" d="M69.16,24.92h-12.16c.08,1.09.43,1.92,1.05,2.5.62.58,1.38.86,2.28.86,1.34,0,2.27-.57,2.8-1.7h5.72c-.29,1.15-.82,2.19-1.59,3.11-.77.92-1.72,1.65-2.88,2.17-1.15.52-2.44.79-3.87.79-1.72,0-3.25-.37-4.59-1.1-1.34-.73-2.39-1.78-3.14-3.14-.75-1.36-1.13-2.95-1.13-4.78s.37-3.41,1.12-4.78c.74-1.36,1.79-2.41,3.13-3.14,1.34-.73,2.88-1.1,4.62-1.1s3.21.36,4.53,1.07c1.32.71,2.35,1.73,3.1,3.05.74,1.32,1.12,2.86,1.12,4.62,0,.5-.03,1.03-.09,1.57ZM63.76,21.93c0-.92-.31-1.66-.94-2.2-.63-.54-1.41-.82-2.36-.82s-1.66.26-2.28.79c-.62.52-1,1.27-1.15,2.23h6.73Z"/>
          <path class="cls-1" d="M77.46,9.14v23.26h-5.37V9.14h5.37Z"/>
        </g>
        <g>
          <path class="cls-1" d="M84.27,9.17v23.13h-3.56V9.17h3.56Z"/>
          <path class="cls-1" d="M88.85,19.01c.72-1.33,1.7-2.37,2.94-3.11,1.24-.74,2.61-1.11,4.11-1.11,1.35,0,2.54.27,3.55.8,1.01.53,1.82,1.19,2.42,1.98v-2.5h3.59v17.22h-3.59v-2.56c-.61.81-1.43,1.49-2.47,2.03-1.04.54-2.23.81-3.56.81-1.48,0-2.83-.38-4.06-1.14-1.23-.76-2.2-1.82-2.92-3.19-.72-1.36-1.08-2.91-1.08-4.64s.36-3.26,1.08-4.59ZM101.14,20.58c-.49-.87-1.13-1.54-1.92-2-.79-.46-1.65-.69-2.56-.69s-1.77.22-2.56.67c-.79.45-1.43,1.1-1.92,1.97-.49.87-.73,1.89-.73,3.08s.25,2.23.73,3.12c.49.9,1.14,1.58,1.94,2.05.8.47,1.65.7,2.55.7s1.77-.23,2.56-.69c.79-.46,1.43-1.13,1.92-2.02.49-.89.73-1.92.73-3.11s-.25-2.22-.73-3.09Z"/>
          <path class="cls-1" d="M116.2,15.59c1.05-.53,2.22-.8,3.52-.8,1.52,0,2.9.37,4.13,1.09,1.23.73,2.2,1.76,2.91,3.11.71,1.34,1.06,2.88,1.06,4.61s-.35,3.28-1.06,4.64c-.71,1.37-1.68,2.43-2.92,3.19-1.24.76-2.61,1.14-4.11,1.14-1.33,0-2.52-.26-3.55-.78-1.03-.52-1.85-1.19-2.45-2v2.5h-3.56V9.17h3.56v8.47c.6-.83,1.43-1.52,2.48-2.05ZM123.45,20.53c-.49-.86-1.14-1.52-1.94-1.97s-1.66-.67-2.58-.67-1.75.23-2.55.69c-.8.46-1.45,1.13-1.94,2s-.73,1.91-.73,3.09.25,2.22.73,3.11c.49.89,1.14,1.56,1.94,2.02.8.46,1.65.69,2.55.69s1.78-.23,2.58-.7c.8-.47,1.45-1.15,1.94-2.05.49-.9.73-1.94.73-3.12s-.24-2.21-.73-3.08Z"/>
          <path class="cls-1" d="M134.4,31.47c-1.31-.74-2.34-1.78-3.09-3.13-.75-1.34-1.13-2.9-1.13-4.67s.39-3.3,1.16-4.66c.77-1.35,1.82-2.4,3.16-3.12s2.82-1.09,4.47-1.09,3.14.37,4.47,1.09,2.39,1.77,3.16,3.12c.77,1.35,1.16,2.91,1.16,4.66s-.4,3.3-1.19,4.66-1.87,2.4-3.23,3.14c-1.37.74-2.87,1.11-4.52,1.11s-3.09-.37-4.41-1.11ZM141.39,28.83c.8-.44,1.45-1.09,1.95-1.97.5-.88.75-1.94.75-3.19s-.24-2.31-.72-3.17c-.48-.87-1.11-1.52-1.91-1.95-.79-.44-1.65-.66-2.56-.66s-1.76.22-2.55.66c-.78.44-1.4,1.09-1.86,1.95s-.69,1.92-.69,3.17c0,1.85.47,3.29,1.42,4.3.95,1.01,2.14,1.52,3.58,1.52.92,0,1.78-.22,2.58-.66Z"/>
          <path class="cls-1" d="M156.92,15.53c.87-.49,1.89-.73,3.08-.73v3.69h-.91c-1.4,0-2.45.35-3.17,1.06s-1.08,1.94-1.08,3.69v9.06h-3.56V15.08h3.56v2.5c.52-.87,1.21-1.56,2.08-2.05Z"/>
        </g>
      </g>
      <rect class="cls-1" x="24.97" y="7.35" width="5.36" height="5.36"/>
      <rect class="cls-1" y="27.04" width="5.36" height="5.36"/>
      <rect class="cls-1" x="72.09" y="27.04" width="5.36" height="5.36"/>
      <rect class="cls-2" width="160" height="40"/>
    </g>
  </g>
</svg>